<?xml version="1.0" ?><svg id="Layer_1" style="enable-background:new 0 0 200 200;" version="1.1" viewBox="0 0 200 200" xml:space="preserve" xmlns="http://www.w3.org/2000/svg" xmlns:xlink="http://www.w3.org/1999/xlink"><path d="M153.5,57.2c-0.7-0.2-1.5-0.3-2.2-0.3H150h-1.7l0.1-9.5l0.1-6.4l0-1.6c0-0.6,0-1,0-1.9c0-0.3,0-0.9-0.1-1.4  c0-0.5-0.1-1-0.3-1.4c-0.3-0.9-0.8-1.7-1.6-2.3c-0.7-0.6-1.7-0.9-2.6-1.1c-0.5-0.1-1-0.1-1.5-0.2c-0.4,0-0.7,0-1,0l-3.3,0l-6.5-0.1  l-12.9-0.1l-25.9-0.1l-13,0l-6.5,0l-3.2,0c-0.8,0-1.9-0.1-2.9-0.2c-1.8-0.2-3.6-0.4-5.6-0.4c-1,0-2,0-3.1,0c-0.5,0-1.1,0.1-1.7,0.2  c-0.3,0-0.6,0.1-1.1,0.3c-0.5,0.1-0.9,0.3-1.3,0.5L54,31.2c-0.1,0.1-0.2,0.2-0.3,0.3L52.9,32c-0.4,0.5-0.8,0.9-1.1,1.4  c-0.3,0.5-0.6,1-0.7,1.6c-0.2,0.6-0.3,0.9-0.3,1.3c-0.3,1.6-0.3,3-0.3,4.3c0,2.6,0.2,5.1,0.4,7.4c0,0.6,0.1,1.1,0.1,1.6l0,1.8v3.6v2  l-1.8,0l-0.5,0c-0.3,0-0.5,0-0.8,0c-0.5,0-1,0.1-1.5,0.3c-1,0.3-1.8,0.8-2.6,1.5c-1.5,1.4-2.3,3.4-2.1,5.4  c1.5,15.9,3.1,31.7,4.6,47.6l2.4,23.6l1.2,11.8c0.4,3.7,0.4,7.7,0.8,11.9c0.1,1,0.2,2.1,0.4,3.1c0.1,0.5,0.2,1.1,0.3,1.6l0.4,1.7  c0.2,1.6,0.7,3.3,2.2,3.5l4,0.7c4.4,0.6,8.4,0.1,12.3-0.2c2-0.2,3.9-0.3,5.8-0.3l5.9-0.1l11.9-0.2c15.8-0.3,31.6-0.6,47.4-0.9h0  c2.6-0.1,3.9-0.5,3.9-0.9c2,0.2,4.4-9.1,5.4-20.6l6.6-73l0.8-9.5C158.5,61,156.4,58.1,153.5,57.2z M48.7,64.1  C48.7,64.1,48.7,64,48.7,64.1C48.7,64,48.7,64,48.7,64.1l0.1-0.1l0,0l0.3,0l6.2,0l12.5,0c8.3,0,16.7,0,25,0h36.6h18.3h3.3l-0.8,8.8  l-1.1,11.8c-11.1-0.9-22.3-1.6-33.5-2c0-0.2,0.1-0.4,0.2-0.6c0.1-0.6,0.2-1.2,0.3-1.8c0-0.3,0.1-0.6,0.1-1c0-0.3,0-0.8-0.1-1.2  c-0.1-0.9-0.4-1.8-0.8-2.5c-0.5-0.8-1.3-1.3-2.1-1.6c-0.4-0.2-0.9-0.3-1.4-0.4l-1.2-0.2c-0.6-0.1-1.3-0.2-1.9-0.2  c-2.4-0.2-4.7-0.1-6.9,0l-1.6,0.1c-0.5,0-0.7,0-1.2-0.1L96,72.8c-1.4-0.1-2.8-0.3-4.3-0.3c-0.7,0-1.5,0-2.3,0c-0.2,0-0.4,0-0.6,0  l-0.8,0.1c-0.7,0.1-1.3,0.3-2,0.4c-1.2,0.4-2.4,1.2-3,2.3c-0.7,1.1-0.9,2.4-1,3.8c-0.1,1.2,0,2.2,0,3.1H52.6c-0.8,0-1.6,0.1-2.3,0.4  C49.7,76.4,49.2,70.2,48.7,64.1z M70,50c0.3-0.4,0.8-0.7,1.6-0.9l0.7-0.1c0.2,0,0.5,0,0.8-0.1c0.4-0.1,1.2-0.1,1.9-0.1  c5.4-0.1,10.9-0.1,16.4,0c4.5,0,9.1,0,13.7-0.1c4.5-0.2,9-0.4,13.5-0.6l6.7-0.3c1.2,0,2.1-0.1,3,0c0.9,0.1,1.6,0.3,2.3,0.7  c1.2,0.7,2,2.4,2.4,4.5c0.2,1.3,0.3,2.6,0.5,3.9h-3.8H92.8c-8,0-16,0-23.9,0c0.1-0.4,0.1-0.8,0.1-1.2C68.9,53.2,69.3,50.8,70,50z   M89.1,82.2c-0.1-1-0.1-1.9,0-2.6c0,0,0,0,0,0l0.2,0c0.1,0,0.3,0,0.4,0c0.5,0,1.1,0,1.8,0c1.2,0,2.5,0.2,3.9,0.3  c1.1,0.1,2.2,0.2,3.4,0.3c0.6,0,1.5,0,2.1,0c0.6-0.1,1.2-0.1,1.8-0.2c2.2-0.3,4.4-0.7,6.4-1c0.5-0.1,1-0.1,1.5-0.2  c0.6,0,0.5-0.1,0.8-0.1c0.4-0.1,0.8,0.1,1,0.6c0.1,0.1,0.1,0.2,0.2,0.4c0.1,0.2,0.1,0.5,0.2,0.7c0.1,0.5,0.2,1,0.3,1.6  c0,0.2,0.1,0.4,0.1,0.7c-7.6-0.2-15.2-0.4-22.8-0.4H89.1z M89,79.6C89,79.6,89,79.6,89,79.6L89,79.6L89,79.6z M57.8,37.7  c0-0.2,0.1-0.4,0.1-0.4l0,0c0,0,0.1,0,0.2,0c0.3-0.1,0.6-0.1,1-0.1c0.7,0,1.5-0.1,2.3,0c1.7,0.1,3.4,0.2,5.2,0.4  c1.1,0.1,2.2,0.2,3.6,0.2l3.2,0l6.5,0l13,0l25.9-0.1l12.9-0.1l6.5-0.1l3.1,0l0.7,0c0.1,0,0.1,0,0.2,0c0.1,0,0.1,0.1,0.1,0.1l0,0.1  c0,0,0,0,0,0.2l0,3l0.1,6.5l0.1,9.5h-6.8c0.1-1.4,0.3-2.8,0.3-4.2c0-1.2-0.1-2.5-0.5-3.8c-0.4-1.3-1.2-2.7-2.4-3.7  c-2.4-2-5.5-2.3-7.7-2.5c-2.3-0.2-4.6-0.4-6.8-0.5c-9.2-0.4-18.1-0.4-27.1-0.6c-5.5-0.1-11.1-0.1-16.7,0c-0.7,0-1.3,0-2.3,0.1  c-0.4,0-0.9,0.1-1.3,0.1l-1.4,0.3c-1.8,0.5-3.9,1.6-5.3,3.4c-1.4,1.8-1.9,3.7-2.2,5.4c-0.3,1.7-0.3,3.2-0.3,4.7  c0,0.4,0.1,0.8,0.1,1.2l-3.9,0v-1.9v-3.6l0-1.8c0-0.7,0-1.4-0.1-2c-0.2-2.5-0.4-4.8-0.4-7C57.6,39.6,57.7,38.5,57.8,37.7z   M47.2,85.7L47.2,85.7L47.2,85.7z M143.7,145.8c-0.9,10.1-0.5,18.6,1,20.8c-0.6-0.2-1.7-0.4-3.2-0.4h0c-15.8-0.3-31.6-0.6-47.4-0.9  L82.3,165l-5.9-0.1c-2,0-4.1,0-6.1,0.1c-3.9,0.2-7.8,0.4-11.3-0.1c-0.4-0.1-0.9-0.2-1.3-0.2c-0.3-0.1-0.4-0.1-0.5-0.1l-0.2,0  c-0.1,0-0.1-0.1-0.1-0.2c0-0.2,0-0.3-0.1-0.5l-0.3-1.1c-0.1-0.4-0.2-0.9-0.2-1.3c-0.1-0.9-0.2-1.8-0.3-2.8  c-0.3-3.8-0.2-7.7-0.5-11.8l-0.9-11.8l-1.9-23.7c-0.6-7.4-1.2-14.8-1.8-22.1c0.6,0.1,1.2,0.2,1.8,0.2h37.6c19.7,0,39.3-0.8,58.9-2.5  L143.7,145.8z"/></svg>