<?xml version="1.0" ?><!DOCTYPE svg  PUBLIC '-//W3C//DTD SVG 1.1//EN'  'http://www.w3.org/Graphics/SVG/1.1/DTD/svg11.dtd'><svg enable-background="new 0 0 48 48" height="48px" version="1.1" viewBox="0 0 48 48" width="48px" xml:space="preserve" xmlns="http://www.w3.org/2000/svg" xmlns:xlink="http://www.w3.org/1999/xlink"><g id="Layer_3"><g><path d="M47.954,12.09c0-6.164-4.998-11.163-11.163-11.163c-0.48,0-0.956,0.041-1.422,0.101V1.021L2.785,3.812    H0.046v17.24h4.418l22.226,1.482l-1.864,16.378l0.004,0.002c-0.083,0.427-0.133,0.865-0.133,1.316    c0,3.778,3.062,6.842,6.842,6.842c3.314,0,6.077-2.358,6.703-5.485h0.003l5.115-20.479h-0.01    C46.138,19.079,47.954,15.8,47.954,12.09z M41.16,19.542h0.004l-5.249,21.48c0,0.001,0,0.002-0.001,0.004l-0.008,0.033    l-0.003-0.002c-0.425,1.995-2.194,3.492-4.314,3.492c-2.312,0-4.189-1.785-4.379-4.049l0.217-1.784l2.048-18.562L2.569,18.482    v-5.417v-0.633V6.336l33.686-2.837c0.034-0.003,0.069-0.005,0.104-0.008l0.22-0.019l-0.003,0.007    c0.196-0.013,0.39-0.029,0.588-0.029c4.718,0,8.542,3.824,8.542,8.543C45.705,15.267,43.862,18.107,41.16,19.542z" fill="#241F20"/><path d="M37.464,6.036c-3.136,0-5.678,2.542-5.678,5.678s2.542,5.678,5.678,5.678s5.678-2.542,5.678-5.678    S40.6,6.036,37.464,6.036z M37.464,14.868c-1.742,0-3.154-1.412-3.154-3.154s1.412-3.154,3.154-3.154s3.154,1.412,3.154,3.154    S39.206,14.868,37.464,14.868z" fill="#241F20"/></g></g></svg>