<?xml version="1.0" ?><svg id="Layer_1" style="enable-background:new 0 0 64 64;" version="1.1" viewBox="0 0 64 64" xml:space="preserve" xmlns="http://www.w3.org/2000/svg" xmlns:xlink="http://www.w3.org/1999/xlink"><style type="text/css">
	.st0{fill:none;stroke:#1A1A1A;stroke-width:2;stroke-linecap:round;stroke-linejoin:round;stroke-miterlimit:10;}
	.st1{fill:#1A1A1A;}
	.st2{fill:none;stroke:#000000;stroke-width:2;stroke-linecap:round;stroke-linejoin:round;stroke-miterlimit:10;}
	.st3{fill:none;stroke:#1A1A1A;stroke-width:2;stroke-linecap:round;stroke-linejoin:round;}
	.st4{fill:none;stroke:#1A1A1A;stroke-width:2;stroke-linecap:round;stroke-linejoin:round;stroke-dasharray:5.8,5.8;}
</style><g id="XMLID_25_"><g><path class="st0" d="M24,27h33c1.1,0,2,0.9,2,2c0,0.5-0.2,1-0.6,1.4C58,30.8,57.5,31,57,31h-8H24"/><path class="st0" d="M9,31H7c-1.1,0-2-0.9-2-2c0-0.5,0.2-1,0.6-1.4C5.9,27.2,6.4,27,7,27h2"/><line class="st0" x1="33.5" x2="49" y1="44.7" y2="55"/><line class="st0" x1="24" x2="28.5" y1="38.3" y2="41.3"/><line class="st0" x1="28.5" x2="13" y1="44.7" y2="55"/><line class="st0" x1="49" x2="33.5" y1="31" y2="41.3"/><path class="st0" d="M24,39v4c0,0.5-0.5,1-1,1H10c-0.6,0-1-0.5-1-1v-4v-8v-4h15v4v7.3V39z"/><line class="st0" x1="9" x2="24" y1="39" y2="39"/></g><g id="XMLID_26_"><path class="st0" d="M51,24v3h-6V13c1.7,0,3.2,1.2,4.2,2.8c0.5,0.7,0.9,1.5,1.2,2.2c0.4,1,0.6,2.1,0.6,3V24z"/><polyline class="st0" points="50.4,18 55,18 55,23 51,23   "/><line class="st0" x1="55" x2="55" y1="16" y2="18"/></g><path class="st1" d="M33.5,41.3C33,40.5,32,40,31,40c-1,0-2,0.5-2.5,1.3C28.2,41.8,28,42.4,28,43s0.2,1.2,0.5,1.7   C29,45.5,30,46,31,46c1,0,2-0.5,2.5-1.3c0,0,0,0,0,0c0.3-0.5,0.5-1,0.5-1.7C34,42.4,33.8,41.8,33.5,41.3z"/></g></svg>