<?xml version="1.0" ?><svg id="Layer_1" style="enable-background:new 0 0 64 64;" version="1.1" viewBox="0 0 64 64" xml:space="preserve" xmlns="http://www.w3.org/2000/svg" xmlns:xlink="http://www.w3.org/1999/xlink"><style type="text/css">
	.st0{fill:none;stroke:#1A1A1A;stroke-width:2;stroke-linecap:round;stroke-linejoin:round;stroke-miterlimit:10;}
	.st1{fill:#1A1A1A;}
	.st2{fill:none;stroke:#000000;stroke-width:2;stroke-linecap:round;stroke-linejoin:round;stroke-miterlimit:10;}
	.st3{fill:none;stroke:#1A1A1A;stroke-width:2;stroke-linecap:round;stroke-linejoin:round;}
	.st4{fill:none;stroke:#1A1A1A;stroke-width:2;stroke-linecap:round;stroke-linejoin:round;stroke-dasharray:5.8,5.8;}
</style><g><rect class="st0" height="24" width="44" x="10" y="32"/><rect class="st0" height="12" width="28" x="18" y="36"/><line class="st0" x1="10" x2="54" y1="52" y2="52"/><path class="st0" d="M52,22H12c-1.1,0-2,0.9-2,2v8h44v-8C54,22.9,53.1,22,52,22z"/><circle class="st1" cx="18" cy="27" r="2"/><circle class="st1" cx="25" cy="27" r="2"/><circle class="st1" cx="32" cy="27" r="2"/><circle class="st1" cx="39" cy="27" r="2"/><circle class="st1" cx="46" cy="27" r="2"/><path class="st0" d="M27,39l-0.9,0.9c-0.6,0.6-0.5,1.6,0.1,2.1l0,0c0.8,0.6,0.7,1.8-0.1,2.3L25,45"/><path class="st0" d="M33,39l-0.9,0.9c-0.6,0.6-0.5,1.6,0.1,2.1l0,0c0.8,0.6,0.7,1.8-0.1,2.3L31,45"/><path class="st0" d="M39,39l-0.9,0.9c-0.6,0.6-0.5,1.6,0.1,2.1v0c0.8,0.6,0.7,1.8-0.1,2.3L37,45"/><path class="st0" d="M47,20h-6c-1.7,0-3-1.3-3-3v-4h12v2v2C50,18.7,48.7,20,47,20z"/><line class="st0" x1="55" x2="50" y1="15" y2="15"/><path class="st0" d="M27,20H17c-2.8,0-5-2.2-5-5v0h20v0C32,17.8,29.8,20,27,20z"/><path class="st0" d="M16,8l-0.8,1.1c-0.7,1-0.3,2.3,0.8,2.9l0,0"/><path class="st0" d="M23,8l-0.8,1.1c-0.7,1-0.3,2.3,0.8,2.9l0,0"/><path class="st0" d="M30,8l-0.8,1.1c-0.7,1-0.3,2.3,0.8,2.9l0,0"/></g></svg>