<?xml version="1.0" ?><!DOCTYPE svg  PUBLIC '-//W3C//DTD SVG 1.1//EN'  'http://www.w3.org/Graphics/SVG/1.1/DTD/svg11.dtd'><svg enable-background="new 0 0 64 64" height="64px" id="Layer_1" version="1.1" viewBox="0 0 64 64" width="64px" xml:space="preserve" xmlns="http://www.w3.org/2000/svg" xmlns:xlink="http://www.w3.org/1999/xlink"><path d="M57.792,31.081l-7.587-4.052l-16.726-8.2v-4.285c0-1.106,1.182-1.59,1.182-1.59l0.002-0.01  c2.345-1.063,3.981-3.403,3.981-6.145c0-3.744-3.034-6.779-6.779-6.779c-2.998,0-5.514,1.955-6.401,4.654  c-0.005,0.025-0.309,1.215,0.53,1.215h1.309c0.215-0.019,0.606-0.136,0.909-0.712c0.001-0.004,0.004-0.004,0.006-0.01  c0.568-1.466,1.98-2.511,3.648-2.511c2.167,0,3.922,1.756,3.922,3.923c0,1.683-1.07,3.091-2.561,3.643l0.012,0.012  c0,0-0.104,0.029-0.243,0.075c-0.038,0.012-0.074,0.028-0.112,0.039c-0.753,0.271-2.489,1.102-2.489,3.06v0.313v5.046l-15.542,7.693  l-9.062,4.838c-0.406,0.261-1.069,0.875-1.081,2.171v0.959c0,0.832,0.673,1.506,1.506,1.506h9.212v26.54  c0,0.833,0.674,1.507,1.506,1.507h30.129c0.832,0,1.506-0.674,1.506-1.507v-26.54h9.211c0.833,0,1.507-0.674,1.507-1.506v-1.007  C59.346,32.013,57.811,31.091,57.792,31.081z M45.794,52.432H18.536V34.879c0-0.606,0.444-1.088,1.021-1.194l2.475-0.045h22.523  c0.684,0,1.239,0.556,1.239,1.239V52.432z M44.555,60.896h-24.78c-0.683,0-1.239-0.554-1.239-1.238V55.57h27.258v4.088  C45.794,60.343,45.238,60.896,44.555,60.896z M53.056,32.849h-1.357H48.57v-0.503c0-0.833-0.674-1.506-1.506-1.506H16.935  c-0.832,0-1.506,0.673-1.506,1.506v0.503h-3.934h-0.597h-0.079c-1.046,0-0.021-0.7-0.003-0.712c0.532-0.3,1.18-0.653,1.838-0.983  l19.271-9.636l-0.062,0.074l0.001-0.001l0.05,0.027l19.124,9.537l0.322,0.191l1.045,0.574c0.004,0.001,0.009,0.004,0.013,0.007  l0.637,0.35C53.056,32.276,54.014,32.849,53.056,32.849z" fill="#241F20"/></svg>