<?xml version="1.0" ?><svg enable-background="new 0 0 52 52" id="Layer_1" version="1.1" viewBox="0 0 52 52" xml:space="preserve" xmlns="http://www.w3.org/2000/svg" xmlns:xlink="http://www.w3.org/1999/xlink"><g><g><g><g><path d="M50,37H2V5h48V37z M4,35h44V7H4V35z"/></g></g><g><g><g><rect height="10" width="2" x="18" y="36"/></g></g><g><g><rect height="10" width="2" x="32" y="36"/></g></g></g><g><g><rect height="2" width="22" x="15" y="45"/></g></g></g><g><g><path d="M48.5073242,36.8701172l-5.9946289-3.3950195c-10.4931641-5.9414063-22.5292969-5.9428711-33.0244141-0.0004883     l-5.9956055,3.3955078l-0.9853516-1.7402344l5.9956055-3.3955078c11.1191406-6.2983398,23.875-6.2978516,34.9951172,0.0004883     l5.9946289,3.3950195L48.5073242,36.8701172z"/></g></g><g><g><rect height="2.0003264" transform="matrix(0.9998369 -0.0180635 0.0180635 0.9998369 -0.5731403 0.4748651)" width="4.0006437" x="23.9996777" y="30.9639473"/></g></g></g></svg>