<?xml version="1.0" ?><svg id="Layer_1" style="enable-background:new 0 0 100 100;" version="1.1" viewBox="0 0 100 100" xml:space="preserve" xmlns="http://www.w3.org/2000/svg" xmlns:xlink="http://www.w3.org/1999/xlink"><path d="M38.504,73.154c0,6.339,5.157,11.496,11.496,11.496s11.496-5.157,11.496-11.496S56.339,61.658,50,61.658  S38.504,66.815,38.504,73.154z M57.496,73.154c0,4.133-3.362,7.496-7.496,7.496s-7.496-3.362-7.496-7.496s3.362-7.496,7.496-7.496  S57.496,69.021,57.496,73.154z"/><path d="M93.388,41.373c0.392,0.534,0.999,0.816,1.613,0.816c0.411,0,0.826-0.126,1.183-0.388c0.89-0.654,1.082-1.906,0.428-2.796  C85.732,24.193,68.307,15.351,50,15.351c-18.307,0-35.732,8.843-46.611,23.654c-0.654,0.89-0.462,2.142,0.428,2.796  c0.891,0.654,2.142,0.462,2.796-0.428C16.741,27.583,32.96,19.351,50,19.351C67.04,19.351,83.259,27.583,93.388,41.373z"/><path d="M81.354,50.189c0.392,0.534,0.999,0.816,1.613,0.816c0.411,0,0.826-0.126,1.183-0.388c0.89-0.654,1.082-1.906,0.428-2.796  C76.507,36.834,63.581,30.274,50,30.274S23.493,36.833,15.423,47.82c-0.654,0.89-0.462,2.142,0.428,2.796  c0.891,0.654,2.142,0.463,2.796-0.428C25.966,40.224,37.687,34.274,50,34.274S74.034,40.224,81.354,50.189z"/><path d="M69.327,58.998c0.653,0.891,1.906,1.083,2.795,0.429c0.891-0.653,1.083-1.905,0.429-2.795  C67.299,49.473,58.869,45.199,50,45.199c-8.868,0-17.299,4.274-22.552,11.433c-0.654,0.891-0.461,2.142,0.429,2.795  c0.356,0.262,0.771,0.388,1.182,0.388c0.615,0,1.222-0.283,1.614-0.817C35.175,52.862,42.4,49.199,50,49.199  S64.825,52.862,69.327,58.998z"/></svg>